<?xml version="1.0" encoding="UTF-8"?>
<svg width="200px" height="68px" viewBox="0 0 200 68" version="1.1" xmlns="http://www.w3.org/2000/svg" xmlns:xlink="http://www.w3.org/1999/xlink">
    <!-- Generator: Sketch 51.3 (57544) - http://www.bohemiancoding.com/sketch -->
    <title>Group 7 Copy 3</title>
    <desc>Created with Sketch.</desc>
    <defs></defs>
    <g id="Landing-page" stroke="none" stroke-width="1" fill="none" fill-rule="evenodd">
        <g id="Group-7-Copy-3" fill="#1D4463">
            <g id="Group-6">
                <g id="Group-5" fill-rule="nonzero">
                    <g id="Group-2">
                        <path d="M1.39195613,18.1357049 C0.982152204,18.0683151 0.657315603,17.8281981 0.418753512,17.4179709 C0.17888423,17.0077438 0.0429365181,16.5399408 0.00894958996,16.0112908 C-0.0263445277,15.4826408 0.0429365181,14.9886671 0.213524753,14.5287154 C0.383459394,14.0707266 0.674309067,13.7337776 1.08411299,13.5204857 C2.92855743,13.3156992 4.58345939,13.1796111 6.05339403,13.1102585 C7.52136789,13.0428687 8.95535482,13.0075381 10.356662,13.0075381 C11.7560084,13.0075381 13.1899953,12.9918356 14.6592764,12.9565051 C16.1272502,12.922483 17.784113,12.87145 19.6285574,12.8027517 C19.6958777,12.4618771 19.9690803,12.2047491 20.4481653,12.0333304 C20.9252895,11.8638745 21.4553548,11.7768566 22.0364006,11.7768566 C22.6161391,11.7768566 23.1285574,11.8632202 23.5736555,12.0333304 C24.0174463,12.2047491 24.3063352,12.4278551 24.4442437,12.7000313 L40.1194071,13.2273728 C40.5958777,13.2273728 40.9547012,13.3510298 41.1952241,13.5957267 C41.4337862,13.8423864 41.5697339,14.1230682 41.605028,14.4390805 C41.6390149,14.7564013 41.5540476,15.0717594 41.3488189,15.3877717 C41.1442437,15.7050926 40.8011065,15.8974479 40.3246359,15.968109 L24.5468581,16.4954505 C24.8187535,22.8542988 24.905028,28.9403166 24.8030672,34.7508868 C24.7004529,40.5627655 24.7520868,46.580085 24.956662,52.8008823 C24.956662,53.2798078 24.8030672,53.639002 24.4952241,53.8771562 C24.1880346,54.1185817 23.829211,54.2363503 23.4194071,54.2363503 C23.0096032,54.2363503 22.6337862,54.1342842 22.2919561,53.9294978 C21.9501261,53.724057 21.7448973,53.3825282 21.677577,52.9036027 C21.5403221,49.6911379 21.3867274,46.5807392 21.2167927,43.5710981 C21.0455509,40.5627655 20.8579692,37.5891092 20.653394,34.6481664 C20.4488189,31.7091864 20.2592764,28.7512326 20.0899953,25.776922 C19.9187535,22.8026115 19.7651587,19.7432458 19.629211,16.5981708 C17.7854202,16.6668692 16.1285574,16.7519243 14.65993,16.8546446 C13.1906489,16.957365 11.7736555,17.0770964 10.408296,17.2131845 C9.04097573,17.3512354 7.64228292,17.4873235 6.2076424,17.6234116 C4.77300188,17.7608083 3.16711952,17.9302642 1.39195613,18.1357049 Z" id="Shape"></path>
                        <path d="M35.2941176,33.3919684 C35.3614379,32.9150057 35.5836601,32.571514 35.9601307,32.3673818 C36.3346405,32.1619411 36.7627451,32.0592208 37.2411765,32.0592208 C37.7176471,32.0592208 38.1627451,32.1612869 38.572549,32.3673818 C38.9823529,32.5721683 39.254902,32.8463073 39.3921569,33.1878362 C39.3921569,35.8539857 40.0065359,38.1282275 41.2366013,40.0079447 C42.4660131,41.8889704 43.8137255,42.9992663 45.2830065,43.3407951 C46.7509804,43.6829782 48.1339869,43.1196519 49.4326797,41.6488534 C50.7287582,40.1793634 51.4464052,37.4281588 51.5836601,33.3926226 C51.651634,32.9156599 51.8562092,32.5721683 52.1980392,32.3680361 C52.5392157,32.1625954 52.8973856,32.0781946 53.2738562,32.1109081 C53.648366,32.1468929 53.9908497,32.2823268 54.2980392,32.5211353 C54.6052288,32.7612523 54.7588235,33.1204464 54.7588235,33.5980634 C54.6215686,34.6920025 54.5189542,35.6838755 54.451634,36.5717197 C54.3830065,37.4608723 54.2627451,38.2996462 54.0928105,39.08477 C53.9215686,39.8712023 53.6653595,40.6582889 53.324183,41.4434127 C52.9816993,42.229845 52.5045752,43.0679646 51.8901961,43.956463 C51.0705882,45.2558429 50.0464052,46.2117311 48.8169935,46.8280532 C47.5869281,47.4424126 46.3228758,47.7505737 45.0261438,47.7505737 C43.7281046,47.7505737 42.4647059,47.4273644 41.2352941,46.7770202 C40.0052288,46.1279845 38.9810458,45.1871445 38.1614379,43.956463 C36.9320261,42.2481645 36.2150327,40.5562228 36.0104575,38.8793293 C35.8058824,37.2043986 35.5660131,35.3763687 35.2941176,33.3919684 Z" id="Shape"></path>
                        <path d="M57.5333243,28.4913239 C57.4653504,28.0810967 57.6012981,27.7395679 57.9431282,27.4660831 C58.2843047,27.1932526 58.6764615,27.0041686 59.1215596,26.9021025 C59.5653504,26.7993822 60.0437818,26.7993822 60.5562001,26.9021025 C61.0679648,27.0048229 61.4607752,27.2272746 61.7339779,27.5688035 C62.1437818,28.6633969 62.4333243,29.8940784 62.6052197,31.260848 C62.7751543,32.6289262 62.8947622,34.0657027 62.9640432,35.5679062 C64.0555465,33.2439398 65.6784223,31.3288921 67.8300563,29.8247258 C69.9816903,28.321868 72.9012981,27.329995 76.5895334,26.8510695 C77.066004,26.8510695 77.4424746,26.9714551 77.7163308,27.2096094 C77.9888798,27.4503806 78.141821,27.7225569 78.1777687,28.0300637 C78.211102,28.3375705 78.1261347,28.6293748 77.920906,28.9022054 C77.7163308,29.1763444 77.3738471,29.3477631 76.896723,29.4151529 C74.0280955,29.6892919 71.738553,30.5784446 70.0326707,32.0813024 C68.3248275,33.5867772 67.0437818,35.363774 66.1908406,37.4142556 C65.3352851,39.4660457 64.7895334,41.636913 64.5516249,43.9268573 C64.311102,46.2181102 64.1928014,48.218213 64.1928014,49.9265115 C64.1928014,50.8156642 63.7986837,51.346277 63.01437,51.5163871 C62.2280955,51.6878058 61.5620824,51.4306778 61.0163308,50.7469658 C60.4686184,49.0386673 60.0431282,47.0895976 59.7352851,44.9004108 C59.4280955,42.7131868 59.1542393,40.5416653 58.9156772,38.3884634 C58.6758079,36.2346071 58.4548929,34.2698349 58.2496641,32.4908753 C58.0457426,30.7138785 57.8058733,29.3804766 57.5333243,28.4913239 Z" id="Shape"></path>
                        <path d="M88.6313725,14.4722044 C88.8359477,14.1313298 89.1437908,13.9082238 89.5535948,13.8055035 C89.9633987,13.7027831 90.3732026,13.7204484 90.7830065,13.8571908 C91.1928105,13.9945874 91.551634,14.2340502 91.8588235,14.5749248 C92.1666667,14.9177621 92.3202614,15.2926587 92.3202614,15.7028859 C91.8418301,17.5492353 91.0901961,19.3438974 90.0660131,21.0868722 C89.0418301,22.829847 88.0509804,24.3176565 87.0954248,25.548338 C86.6169935,26.23205 86.0705882,26.4041229 85.4555556,26.0612856 C84.8411765,25.7197567 84.5673203,25.1734414 84.6359477,24.4203769 C85.5921569,22.8488208 86.3934641,21.2412799 87.0437908,19.6003712 C87.6915033,17.9594625 88.2215686,16.251164 88.6313725,14.4722044 Z M84.3137255,29.1873867 C84.3797386,28.7771596 84.6130719,28.4696527 85.0130719,28.264212 C85.4130719,28.0587713 85.8457516,27.9567052 86.3130719,27.9567052 C86.779085,27.9567052 87.2111111,28.0430688 87.6111111,28.213179 C88.0111111,28.3845977 88.2771242,28.6750935 88.4117647,29.0853206 C88.5477124,32.9828059 88.5477124,36.2822886 88.4117647,38.9818058 C88.2738562,41.6832859 88.2405229,44.0242632 88.3091503,46.0060465 C88.3091503,46.484972 88.1594771,46.8441661 87.8594771,47.0829746 C87.5581699,47.3230916 87.2091503,47.4421687 86.8111111,47.4421687 C86.4111111,47.4421687 86.0457516,47.3401026 85.7124183,47.1340077 C85.3797386,46.9292212 85.1797386,46.5883466 85.1124183,46.1094211 C85.1124183,44.1950277 85.0614379,42.5887953 84.9620915,41.2894154 C84.8633987,39.9913441 84.7797386,38.7763651 84.7124183,37.6490582 C84.645098,36.5204428 84.5620915,35.3074265 84.4627451,34.0080467 C84.3640523,32.7093211 84.3137255,31.1017802 84.3137255,29.1873867 Z" id="Shape"></path>
                        <path d="M108.846405,30.9704509 C108.026144,31.0391492 107.548366,30.7833297 107.411765,30.2016838 C107.27451,29.6213465 107.445752,29.091388 107.924183,28.6118082 C107.309804,27.9967946 106.522876,27.7756514 105.567974,27.9451073 C104.610458,28.1165259 103.688889,28.4580548 102.801961,28.970348 C101.913725,29.4832956 101.162745,30.0989635 100.548366,30.8166975 C99.9339869,31.5344314 99.6601307,32.1337426 99.7287582,32.6113595 C99.6601307,33.2270274 99.9673203,33.8780259 100.65098,34.5604293 C101.33268,35.2447955 102.220915,35.9625295 103.314379,36.7142855 C104.405882,37.4673501 105.584314,38.2191061 106.84902,38.9702078 C108.111765,39.7232724 109.289542,40.4573631 110.383007,41.1750971 C111.475163,41.8934854 112.381046,42.5955169 113.098039,43.2779203 C113.815033,43.9616322 114.138562,44.6106679 114.071242,45.2269901 C114.002614,45.3637324 113.984314,45.5181401 114.019608,45.6882503 C114.053595,45.859669 114.035294,46.0474444 113.968627,46.2515766 C113.764052,47.2100819 113.183007,48.1162455 112.226797,48.9694134 C111.269935,49.8258526 110.126797,50.542278 108.794771,51.1226153 C107.463399,51.7042612 106.028758,52.1157969 104.492157,52.3532968 C102.954902,52.5934139 101.537255,52.5770571 100.239869,52.3022638 C98.9424837,52.0300876 97.8320261,51.4667612 96.9104575,50.6103221 C95.9882353,49.7565 95.4921569,48.5081532 95.4248366,46.8672445 C95.4248366,46.3896275 95.5614379,46.0304334 95.8346405,45.7903164 C96.1071895,45.5515079 96.3980392,45.416074 96.7058824,45.3800892 C97.0130719,45.3467214 97.3202614,45.4311222 97.627451,45.6372172 C97.9352941,45.8420037 98.0888889,46.1841868 98.0888889,46.6618037 C98.1562092,48.097926 98.7366013,49.038766 99.8300654,49.4823609 C100.922222,49.9285729 102.135294,50.0469958 103.46732,49.841555 C104.798693,49.6367686 106.028105,49.1591516 107.155556,48.4067413 C108.283007,47.6543311 108.948366,46.8005089 109.153595,45.8420037 C109.220915,45.4317765 108.897386,44.9541595 108.180392,44.40719 C107.463399,43.8602204 106.575163,43.2785746 105.516993,42.6629067 C104.457516,42.0485473 103.296732,41.3811921 102.033333,40.6628038 C100.768627,39.9450699 99.6084967,39.1422808 98.5503268,38.2524739 C97.4908497,37.365284 96.6712418,36.407433 96.0915033,35.3808837 C95.5098039,34.3556429 95.3228758,33.2276817 95.5281046,31.9970002 C95.8,30.6295763 96.4143791,29.4839498 97.3718954,28.5607751 C98.327451,27.6376004 99.4366013,26.9198665 100.701961,26.4069189 C101.965359,25.8939714 103.279085,25.6041299 104.646405,25.5347773 C106.011765,25.4673875 107.222876,25.5864646 108.283007,25.8939714 C109.340523,26.2014782 110.160784,26.698069 110.74183,27.3811267 C111.321569,28.0648386 111.441176,28.919315 111.100654,29.9445558 C110.962745,30.1493422 110.75817,30.3214152 110.486275,30.4575033 C110.211765,30.5955543 109.666013,30.7656644 108.846405,30.9704509 Z" id="Shape"></path>
                        <path d="M135.412259,27.260799 C134.318795,27.8758127 133.396572,27.8084229 132.646246,27.0560126 C131.893958,26.3042566 131.826638,25.3477141 132.44167,24.1844224 L132.953435,23.5694088 C133.568468,23.0917918 134.1652,22.8693401 134.746246,22.9027078 C135.325984,22.9380384 135.787422,23.1258138 136.129252,23.4666884 C136.470429,23.8095258 136.64167,24.253775 136.64167,24.8000903 C136.64167,25.3483684 136.401801,25.9287057 135.924023,26.5437193 L135.412259,27.260799 Z M132.133827,31.0804262 C132.19984,30.670199 132.433174,30.3626922 132.833174,30.1572515 C133.233174,29.9518108 133.6652,29.8497447 134.133174,29.8497447 C134.599187,29.8497447 135.031213,29.9361083 135.431213,30.1062184 C135.831213,30.2776371 136.097226,30.5681329 136.231867,30.9783601 C136.367814,34.8751911 136.367814,38.1746738 136.231867,40.8748453 C136.093958,43.5763253 136.059971,45.9173027 136.129252,47.9003945 C136.129252,48.37932 135.979579,48.7372056 135.679579,48.9766684 C135.378272,49.2167854 135.029252,49.3358625 134.631213,49.3358625 C134.231213,49.3358625 133.865853,49.2337964 133.53252,49.0277014 C133.19984,48.8229149 132.99984,48.4820404 132.93252,48.0031149 C132.93252,46.0900299 132.88154,44.482489 132.782193,43.1831092 C132.6835,41.8850379 132.59984,40.6707131 132.53252,39.5427519 C132.464546,38.4141365 132.382193,37.2017746 132.282847,35.9023947 C132.1835,34.6023606 132.133827,32.9948197 132.133827,31.0804262 Z" id="Shape"></path>
                        <path d="M154.565494,33.5126589 C154.565494,34.3331132 154.206671,34.8120387 153.489677,34.9474726 C152.772684,35.0855235 152.209285,34.7773624 151.799481,34.0249521 C151.730854,33.5473352 151.594906,33.2044978 151.389677,32.9997113 C151.184449,32.7949249 150.877259,32.5554621 150.467455,32.2813231 C149.100789,32.419374 147.957651,33.0167223 147.035429,34.0759852 C146.11386,35.1365565 145.481181,36.3835948 145.140658,37.819717 C144.798174,39.255185 144.764187,40.6913072 145.038043,42.1267752 C145.310592,43.5628974 145.993599,44.7261892 147.087063,45.6140333 C148.17922,46.5725386 149.477259,46.9978139 150.980527,46.8957479 C152.481834,46.7936818 154.036736,46.4521529 155.641965,45.8698528 C157.245887,45.2895155 158.817782,44.5881382 160.355037,43.7676839 C161.891638,42.9472295 163.172684,42.2648261 164.196867,41.716548 C164.673338,41.5117616 165.067455,41.4600743 165.375298,41.5634489 C165.682488,41.665515 165.904057,41.8709557 166.041311,42.1778082 C166.177259,42.4859693 166.194906,42.8288067 166.092292,43.2037033 C165.990331,43.5792542 165.734122,43.9050806 165.324318,44.1772568 C163.616475,45.0664095 161.891638,45.9562164 160.150462,46.8440605 C158.408632,47.7332132 156.615821,48.4849692 154.77203,49.0993286 C154.019743,49.3047693 153.096867,49.5618973 152.006017,49.8687499 C150.912553,50.176911 149.768109,50.3823517 148.573991,50.4844178 C147.377913,50.5864839 146.251115,50.5204026 145.192945,50.2789771 C144.133468,50.0414771 143.298174,49.5108643 142.682488,48.6891014 C141.315821,46.7760165 140.598828,44.7765679 140.531508,42.6901015 C140.46288,40.6049436 140.803403,38.6395171 141.555691,36.7931677 C142.306017,34.9468183 143.330854,33.3235749 144.628893,31.922129 C145.925625,30.5213373 147.241311,29.5804973 148.573338,29.1015718 C149.905364,28.6239548 151.134775,28.6913446 152.261573,29.3063582 C153.387063,29.9226804 154.155691,31.3247806 154.565494,33.5126589 Z" id="Shape"></path>
                        <path d="M165.422079,34.1900885 C166.856066,32.48179 168.478288,31.5586153 170.288092,31.4212186 C172.097243,31.2851305 173.924694,32.0028645 175.769792,33.5750748 C177.339726,34.943153 178.346916,36.3792753 178.792014,37.882133 C179.235151,39.3876079 179.268484,40.8224215 178.893975,42.1898455 C178.518158,43.5585779 177.800511,44.7709399 176.742994,45.8302027 C175.682864,46.8907741 174.437766,47.6242105 173.003125,48.0344377 C170.611622,48.6501056 168.682864,48.5316827 167.21489,47.6752436 C165.745609,46.8214215 164.704432,45.6241077 164.090053,44.0872279 C163.475674,42.5483853 163.270445,40.8564436 163.475674,39.0100942 C163.680249,37.1637448 164.328615,35.5588209 165.422079,34.1900885 Z M174.232537,36.0357836 C173.548877,35.2846819 172.609661,34.8744547 171.41489,34.8051021 C170.218811,34.7377123 169.212275,35.3180496 168.392667,36.5487311 C167.982864,37.1630905 167.742994,38.0195297 167.67502,39.1121603 C167.606393,40.2074079 167.742994,41.2319945 168.084824,42.1891912 C168.425347,43.1476965 168.971752,43.8987982 169.72404,44.4444592 C170.47502,44.9927373 171.430576,45.0274136 172.593321,44.5478339 C173.753452,44.1376067 174.607047,43.5729718 175.154759,42.8552379 C175.700511,42.1375039 175.990053,41.3687368 176.025347,40.5482825 C176.059334,39.7278282 175.922733,38.9250391 175.615543,38.1379525 C175.308354,37.3528287 174.847569,36.6514515 174.232537,36.0357836 Z" id="Shape"></path>
                        <path d="M194.466667,32.2789905 C193.647059,32.3476888 193.168627,32.0925236 193.03268,31.5102235 C192.894771,30.9298861 193.066013,30.3999276 193.544444,29.9203478 C192.930065,29.3053342 192.143791,29.084191 191.188235,29.2536469 C190.231373,29.4250656 189.30915,29.7665944 188.422876,30.2788877 C187.534641,30.7918352 186.783007,31.4075031 186.168627,32.1252371 C185.554248,32.8436253 185.280392,33.4429365 185.34902,33.9198992 C185.280392,34.5349128 185.587582,35.1859113 186.271242,35.8683147 C186.952941,36.5533352 187.841176,37.2710691 188.934641,38.0228252 C190.026797,38.7752354 191.204575,39.5269915 192.469281,40.2780932 C193.73268,41.031812 194.909804,41.7652485 196.003268,42.4836367 C197.095425,43.202025 198.001307,43.9034022 198.718301,44.5858056 C199.435948,45.2695176 199.758824,45.9185532 199.691503,46.5348754 C199.622876,46.6729263 199.604575,46.8260255 199.640523,46.9961356 C199.673856,47.1675543 199.656209,47.3553297 199.588889,47.5594619 C199.384314,48.5179672 198.803268,49.4241309 197.847712,50.2772987 C196.890196,51.1337379 195.747059,51.8514719 194.415686,52.4318092 C193.08366,53.0134551 191.649673,53.4236823 190.112418,53.6624907 C188.575163,53.9026078 187.157516,53.8849425 185.860784,53.6101491 C184.562745,53.3379729 183.452941,52.7746466 182.530719,51.9182074 C181.608497,51.0643853 181.112418,49.8160385 181.045752,48.1751298 C181.045752,47.6975129 181.181699,47.3383187 181.455556,47.0982017 C181.727451,46.8593932 182.018954,46.7239594 182.326144,46.6879745 C182.633987,46.6546068 182.940523,46.7390076 183.248366,46.9451026 C183.555556,47.149889 183.70915,47.4933807 183.70915,47.9696891 C183.776471,49.4058113 184.357516,50.3466513 185.45098,50.7902463 C186.542484,51.2364583 187.755556,51.3548811 189.087582,51.1494404 C190.419608,50.9446539 191.64902,50.467037 192.775817,49.7146267 C193.903268,48.9635249 194.568627,48.1083943 194.773856,47.149889 C194.84183,46.7396619 194.517647,46.2633534 193.800654,45.7150753 C193.08366,45.1681058 192.195425,44.5864599 191.137255,43.970792 C190.077778,43.3564327 188.917647,42.6890775 187.654248,41.9713435 C186.388889,41.2536095 185.228758,40.4508204 184.170588,39.5610135 C183.111111,38.6738236 182.291503,37.7153183 181.711765,36.688769 C181.130719,35.6641825 180.943137,34.5355671 181.148366,33.3048855 C181.420915,31.9374616 182.035294,30.7924895 182.992157,29.8693148 C183.948366,28.9461401 185.057516,28.2284061 186.322222,27.7154585 C187.585621,27.202511 188.899346,26.9126695 190.266667,26.8433169 C191.632026,26.7759271 192.843791,26.8950042 193.903268,27.202511 C194.961438,27.5100178 195.781046,28.0066086 196.362092,28.6896663 C196.94183,29.3733782 197.061438,30.2278546 196.720915,31.2530954 C196.583007,31.4578819 196.378431,31.6299548 196.106536,31.7660429 C195.832026,31.9040939 195.286275,32.074204 194.466667,32.2789905 Z" id="Shape"></path>
                        <path d="M119.659314,1.66613912 C119.659314,1.18917642 119.931863,0.812317011 120.479575,0.53817796 C121.025327,0.265347449 121.606373,0.0945830278 122.220752,0.0252304278 C122.835131,-0.0421593628 123.399183,0.0252304278 123.911601,0.230016879 C124.423366,0.43480333 124.680229,0.777640711 124.680229,1.25525767 C124.475,4.8112141 124.321405,8.70869937 124.218791,12.9470592 C124.11683,17.1867276 124.029902,21.5461273 123.962582,26.0232957 C123.893954,30.5017725 123.893954,34.9298706 123.962582,39.3036643 C124.029902,43.6800751 124.167157,47.748979 124.372386,51.5084134 C124.029902,52.3288677 123.46585,52.7901279 122.68219,52.892194 C121.895915,52.9942601 121.435131,52.6697423 121.299183,51.9186405 C121.025327,49.0457418 120.768464,45.6108253 120.530556,41.6112739 C120.290686,37.6117226 120.103105,33.3556974 119.967157,28.8431985 C119.829248,24.3306997 119.727288,19.7331457 119.659314,15.0492281 C119.590686,10.3672733 119.590686,5.90646176 119.659314,1.66613912 Z" id="Shape"></path>
                    </g>
                    <g id="Group-4" transform="translate(107.843137, 10.468317)">
                        <path d="M2.01735302,3.44834298 L13.0646696,0 L1.30978608,0 C0.437049836,0.0809335324 0.000681712724,0.482363853 0.000681712724,1.20429096 C0.000681712724,2.28718163 -0.0952164607,3.88604081 1.98779546,3.45756917 L2.01735302,3.44834298 C1.92138824,3.46247538 1.82576433,3.47670954 1.73047498,3.49104638 L13.0096975,1.53029359e-14 C19.6698318,1.49086583e-14 24.1921014,1.4692661e-14 26.5765063,1.46549439e-14 C28.2149823,1.46549439e-14 30.5331117,1.98985061 26.5765063,1.98985061 C16.806246,1.98985061 8.61985946,2.47601504 2.01734671,3.44834391 Z" id="Combined-Shape"></path>
                    </g>
                </g>
                <path d="M116.726893,61.6881616 C116.726893,60.8907907 116.462874,60.2100666 115.934828,59.6459691 C115.406782,59.0818715 114.786496,58.799827 114.073952,58.799827 C113.335959,58.799827 112.70401,59.0680874 112.178084,59.6046162 C111.652159,60.1411451 111.3892,60.7974819 111.3892,61.5736462 C111.3892,62.3922238 111.653219,63.0793098 112.181265,63.6349247 C112.709311,64.1905396 113.348683,64.4683428 114.099399,64.4683428 C114.790737,64.4683428 115.40148,64.1905396 115.931647,63.6349247 C116.461814,63.0793098 116.726893,62.4303953 116.726893,61.6881616 Z M116.701445,59.226079 L116.701445,55.8542345 L117.604845,55.8542345 L117.604845,65.1172638 L116.701445,65.1172638 L116.701445,64.0611767 C116.387587,64.4513795 115.99739,64.7556908 115.530843,64.9741195 C115.064296,65.1925483 114.570188,65.301761 114.048504,65.301761 C113.039066,65.301761 112.188691,64.9454942 111.497353,64.2329499 C110.806016,63.5204056 110.460352,62.6467037 110.460352,61.611818 C110.460352,60.5854149 110.801775,59.7212559 111.484629,59.0193149 C112.167484,58.317374 113.022101,57.9664088 114.048504,57.9664088 C114.599877,57.9664088 115.101408,58.0735009 115.55311,58.2876883 C116.004812,58.5018757 116.387587,58.8146695 116.701445,59.226079 Z M125.888131,61.8981067 L119.570694,61.8981067 C119.625832,62.661547 119.901514,63.278652 120.39775,63.7494401 C120.893987,64.2202283 121.513212,64.4556189 122.255446,64.4556189 C122.781371,64.4556189 123.254273,64.3188379 123.674165,64.0452718 C124.094057,63.7717057 124.418515,63.3910516 124.647547,62.903298 L125.665462,62.903298 C125.343121,63.6794623 124.890365,64.275361 124.307181,64.6910118 C123.723998,65.1066626 123.048575,65.3144849 122.280894,65.3144849 C121.262973,65.3144849 120.401995,64.9518562 119.697934,64.2265879 C118.993872,63.5013197 118.641846,62.6297384 118.641846,61.611818 C118.641846,60.5472429 118.98645,59.6671791 119.675667,58.9716002 C120.364884,58.2760212 121.246008,57.928237 122.319066,57.928237 C123.370917,57.928237 124.228714,58.2898054 124.892483,59.012953 C125.556252,59.7361006 125.888131,60.6766025 125.888131,61.834487 L125.888131,61.8981067 Z M124.895664,61.1410322 C124.72601,60.3563852 124.414277,59.7657882 123.960454,59.3692233 C123.506631,58.9726585 122.914974,58.7743791 122.185464,58.7743791 C121.506851,58.7743791 120.932158,58.987503 120.46137,59.4137571 C119.990582,59.8400113 119.702175,60.4157639 119.596142,61.1410322 L124.895664,61.1410322 Z M130.513284,65.1172638 L129.552626,65.1172638 L133.14714,55.8542345 L134.241399,55.8542345 L137.823188,65.1172638 L136.849807,65.1172638 L135.742824,62.2098432 L131.620267,62.2098432 L130.513284,65.1172638 Z M135.424725,61.3764251 L133.668821,56.7258245 L131.938365,61.3764251 L135.424725,61.3764251 Z M139.273717,65.1172638 L138.363956,65.1172638 L138.363956,58.1190961 L139.210098,58.1190961 L139.210098,58.9270664 C139.430647,58.6174489 139.671339,58.3905409 139.932181,58.2463355 C140.193023,58.1021301 140.497335,58.0257872 140.845124,58.0173046 L140.851486,58.9906861 C140.287389,59.0415821 139.883408,59.2101726 139.639531,59.4964627 C139.395654,59.7827529 139.273717,60.2482324 139.273717,60.8929153 L139.273717,65.1172638 Z M142.830059,65.6898412 C142.965782,66.0970094 143.211775,66.4140444 143.568048,66.6409558 C143.92432,66.8678672 144.356929,66.9813213 144.86589,66.9813213 C145.663261,66.9813213 146.302632,66.7162418 146.784024,66.1860749 C147.265415,65.655908 147.506107,64.9476157 147.506107,64.0611767 L147.506107,63.8766796 C147.166801,64.3389851 146.780845,64.6878296 146.348229,64.9232237 C145.915613,65.1586178 145.43847,65.2763131 144.916785,65.2763131 C143.864934,65.2763131 142.991232,64.9253479 142.295654,64.223407 C141.600075,63.521466 141.25229,62.6467038 141.25229,61.5990941 C141.25229,60.5684497 141.595833,59.7032303 142.28293,59.00341 C142.970026,58.3035897 143.820401,57.9536849 144.83408,57.9536849 C145.423625,57.9536849 145.933638,58.0597166 146.364134,58.2717834 C146.794629,58.4838501 147.175283,58.8146693 147.506107,59.2642508 L147.506107,58.1190961 L148.384059,58.1190961 L148.384059,63.9593852 C148.384059,65.1808897 148.077628,66.1351757 147.464755,66.822272 C146.851882,67.5093683 146.006808,67.8529112 144.929509,67.8529112 C144.13638,67.8529112 143.455656,67.6567524 142.887317,67.2644289 C142.318978,66.8721055 141.952108,66.3472481 141.786696,65.6898412 L142.830059,65.6898412 Z M142.206586,61.5609222 C142.206586,62.3794999 142.466364,63.0644652 142.985927,63.6158388 C143.505491,64.1672123 144.132139,64.442895 144.86589,64.442895 C145.557227,64.442895 146.16797,64.166152 146.698137,63.6126578 C147.228304,63.0591636 147.493384,62.4091887 147.493384,61.6627138 C147.493384,60.8653428 147.232545,60.1846187 146.710861,59.6205212 C146.189177,59.0564236 145.574193,58.7743791 144.86589,58.7743791 C144.13638,58.7743791 143.510793,59.0426395 142.989108,59.5791684 C142.467424,60.1156972 142.206586,60.7762753 142.206586,61.5609222 Z M156.641897,61.8981067 L150.324461,61.8981067 C150.379598,62.661547 150.65528,63.278652 151.151517,63.7494401 C151.647753,64.2202283 152.266979,64.4556189 153.009212,64.4556189 C153.535138,64.4556189 154.008039,64.3188379 154.427932,64.0452718 C154.847824,63.7717057 155.172281,63.3910516 155.401313,62.903298 L156.419228,62.903298 C156.096887,63.6794623 155.644131,64.275361 155.060948,64.6910118 C154.477764,65.1066626 153.802342,65.3144849 153.03466,65.3144849 C152.01674,65.3144849 151.155762,64.9518562 150.4517,64.2265879 C149.747638,63.5013197 149.395613,62.6297384 149.395613,61.611818 C149.395613,60.5472429 149.740216,59.6671791 150.429433,58.9716002 C151.11865,58.2760212 151.999774,57.928237 153.072832,57.928237 C154.124683,57.928237 154.98248,58.2898054 155.646249,59.012953 C156.310018,59.7361006 156.641897,60.6766025 156.641897,61.834487 L156.641897,61.8981067 Z M155.64943,61.1410322 C155.479777,60.3563852 155.168043,59.7657882 154.71422,59.3692233 C154.260397,58.9726585 153.66874,58.7743791 152.93923,58.7743791 C152.260617,58.7743791 151.685925,58.987503 151.215136,59.4137571 C150.744348,59.8400113 150.455942,60.4157639 150.349908,61.1410322 L155.64943,61.1410322 Z M157.672537,58.1190961 L158.544127,58.1190961 L158.544127,58.9143424 C158.819813,58.5962423 159.138969,58.3608517 159.501603,58.2081637 C159.864237,58.0554756 160.278822,57.9791327 160.745368,57.9791327 C161.25857,57.9791327 161.715567,58.0745613 162.116373,58.2654214 C162.517179,58.4562815 162.834214,58.7298435 163.067488,59.0861156 C163.228659,59.3363544 163.344233,59.6300624 163.414215,59.9672486 C163.484197,60.3044347 163.519188,60.8017238 163.519188,61.4591307 L163.519188,65.1172638 L162.634874,65.1172638 L162.634874,61.1982899 C162.634874,60.3712296 162.476886,59.7710897 162.160907,59.3978522 C161.844928,59.0246147 161.339156,58.8379988 160.643577,58.8379988 C160.236409,58.8379988 159.879082,58.9196433 159.571585,59.0829346 C159.264088,59.246226 159.021275,59.4805563 158.843139,59.7859324 C158.732865,59.9767925 158.655461,60.1941576 158.610927,60.4380344 C158.566393,60.6819112 158.544127,61.1070986 158.544127,61.7136095 L158.544127,65.1172638 L157.672537,65.1172638 L157.672537,58.1190961 Z M165.555018,65.1172638 L165.555018,59.0224959 L164.225366,59.0224959 L164.225366,58.1190961 L165.555018,58.1190961 L165.555018,55.8542345 L166.452056,55.8542345 L166.452056,58.1190961 L167.781708,58.1190961 L167.781708,59.0224959 L166.452056,59.0224959 L166.452056,65.1172638 L165.555018,65.1172638 Z M169.410373,57.2984019 L168.513335,57.2984019 L168.513335,55.8542345 L169.410373,55.8542345 L169.410373,57.2984019 Z M168.513335,65.1172638 L168.513335,58.1190961 L169.410373,58.1190961 L169.410373,65.1172638 L168.513335,65.1172638 Z M170.860902,58.1190961 L171.732492,58.1190961 L171.732492,58.9143424 C172.008179,58.5962423 172.327334,58.3608517 172.689968,58.2081637 C173.052603,58.0554756 173.467187,57.9791327 173.933734,57.9791327 C174.446935,57.9791327 174.903932,58.0745613 175.304738,58.2654214 C175.705545,58.4562815 176.02258,58.7298435 176.255853,59.0861156 C176.417024,59.3363544 176.532598,59.6300624 176.60258,59.9672486 C176.672562,60.3044347 176.707553,60.8017238 176.707553,61.4591307 L176.707553,65.1172638 L175.823239,65.1172638 L175.823239,61.1982899 C175.823239,60.3712296 175.665252,59.7710897 175.349272,59.3978522 C175.033293,59.0246147 174.527521,58.8379988 173.831942,58.8379988 C173.424774,58.8379988 173.067447,58.9196433 172.75995,59.0829346 C172.452453,59.246226 172.209641,59.4805563 172.031504,59.7859324 C171.92123,59.9767925 171.843827,60.1941576 171.799293,60.4380344 C171.754759,60.6819112 171.732492,61.1070986 171.732492,61.7136095 L171.732492,65.1172638 L170.860902,65.1172638 L170.860902,58.1190961 Z M184.042905,61.5736462 C184.042905,60.8314125 183.777826,60.1835583 183.247659,59.6300641 C182.717492,59.0765699 182.106749,58.799827 181.415411,58.799827 C180.664695,58.799827 180.025323,59.0765699 179.497277,59.6300641 C178.969231,60.1835583 178.705212,60.869584 178.705212,61.6881616 C178.705212,62.4685673 178.968171,63.1270247 179.494096,63.6635535 C180.020022,64.2000824 180.651971,64.4683428 181.389963,64.4683428 C182.102508,64.4683428 182.722794,64.185238 183.25084,63.6190197 C183.778886,63.0528015 184.042905,62.3710172 184.042905,61.5736462 Z M184.042905,64.0102809 C183.762977,64.4132078 183.384444,64.7291825 182.907293,64.9582146 C182.430143,65.1872467 181.915889,65.301761 181.364515,65.301761 C180.338112,65.301761 179.483496,64.9507958 178.800641,64.2488548 C178.117786,63.5469139 177.776364,62.6806342 177.776364,61.6499898 C177.776364,60.6023801 178.125209,59.7265575 178.822908,59.0224959 C179.520608,58.3184343 180.393249,57.9664088 181.440859,57.9664088 C181.979509,57.9664088 182.473617,58.0756215 182.923198,58.2940503 C183.37278,58.512479 183.746012,58.8273934 184.042905,59.2388029 L184.042905,58.1190961 L184.920857,58.1190961 L184.920857,65.1172638 L184.042905,65.1172638 L184.042905,64.0102809 Z" id="de-Argentina"></path>
            </g>
        </g>
    </g>
</svg>